<?xml version="1.0" encoding="UTF-8" standalone="no" ?>
<!DOCTYPE svg PUBLIC "-//W3C//DTD SVG 1.1//EN" "http://www.w3.org/Graphics/SVG/1.1/DTD/svg11.dtd">
<svg xmlns="http://www.w3.org/2000/svg" xmlns:xlink="http://www.w3.org/1999/xlink" version="1.1" width="1080" height="1080" viewBox="0 0 1080 1080" xml:space="preserve">
<desc>Created with Fabric.js 5.2.4</desc>
<defs>
</defs>
<g transform="matrix(1 0 0 1 540 540)" id="f1adbc38-3658-4793-ba48-cde8d86a97dd"  >
<rect style="stroke: none; stroke-width: 1; stroke-dasharray: none; stroke-linecap: butt; stroke-dashoffset: 0; stroke-linejoin: miter; stroke-miterlimit: 4; fill: rgb(255,255,255); fill-rule: nonzero; opacity: 1; visibility: hidden;" vector-effect="non-scaling-stroke"  x="-540" y="-540" rx="0" ry="0" width="1080" height="1080" />
</g>
<g transform="matrix(1 0 0 1 540 540)" id="792d503f-9b23-4561-97e0-afc044b1e119"  >
</g>
<g transform="matrix(7.24 0 0 7.24 505.29 519.59)" id="4677d561-cd04-473f-8e57-4eced4e9e077"  >
<path style="stroke: rgb(0,0,0); stroke-width: 0; stroke-dasharray: none; stroke-linecap: butt; stroke-dashoffset: 0; stroke-linejoin: miter; stroke-miterlimit: 4; fill: rgb(129,0,0); fill-rule: nonzero; opacity: 1;" vector-effect="non-scaling-stroke"  transform=" translate(-50, -50)" d="M 67.5 58.5 C 58.4 58.5 51 65.9 51 75 C 51 84.1 58.4 91.5 67.5 91.5 C 76.6 91.5 84 84.1 84 75 C 84 65.9 76.6 58.5 67.5 58.5 z M 67.5 88.5 C 60.1 88.5 54 82.4 54 75 C 54 67.6 60.1 61.5 67.5 61.5 C 74.9 61.5 81 67.6 81 75 C 81 82.4 74.9 88.5 67.5 88.5 z M 76.5 75 C 76.5 75.8 75.8 76.5 75 76.5 L 69 76.5 L 69 82.5 C 69 83.3 68.3 84 67.5 84 C 66.7 84 66 83.3 66 82.5 L 66 76.5 L 60 76.5 C 59.2 76.5 58.5 75.8 58.5 75 C 58.5 74.2 59.2 73.5 60 73.5 L 66 73.5 L 66 67.5 C 66 66.7 66.7 66 67.5 66 C 68.3 66 69 66.7 69 67.5 L 69 73.5 L 75 73.5 C 75.8 73.5 76.5 74.2 76.5 75 z M 62.8 8 C 63.9 8 64.8 8.9 64.8 10 C 64.8 11.1 63.9 12 62.8 12 L 18.7 12 C 17.599999999999998 12 16.7 11.1 16.7 10 C 16.7 8.9 17.599999999999998 8 18.7 8 L 62.8 8 z M 69.5 53.1 L 69.5 15 C 69.5 13.9 68.6 13 67.5 13 L 18 13 C 16.1 13 14.5 11.7 14.5 10 C 14.5 8.3 16.1 7 18 7 L 67.5 7 C 68.6 7 69.5 6.1 69.5 5 C 69.5 3.9000000000000004 68.6 3 67.5 3 L 18 3 C 13.9 3 10.5 6.1 10.5 10 L 10.5 69 C 10.5 73.4 14.4 77 19.1 77 L 45.6 77 C 46.6 88.2 56 97 67.5 97 C 79.6 97 89.5 87.1 89.5 75 C 89.5 63.5 80.7 54.1 69.5 53.1 z M 14.5 69 L 14.5 16.2 C 15.5 16.7 16.7 17 18 17 L 65.5 17 L 65.5 53.1 C 59.5 53.6 54.2 56.6 50.6 61 L 50.6 47.3 C 50.6 46.4 49.9 45.699999999999996 49 45.699999999999996 L 49 34.3 C 50.1 34.199999999999996 51 33.3 51 32.199999999999996 L 51 20.8 L 49.9 20.8 L 49.9 30.1 L 49.3 30.1 L 49.3 20.8 L 48 20.8 L 48 30.1 L 47.4 30.1 L 47.4 20.8 L 46.1 20.8 L 46.1 30.1 L 45.5 30.1 L 45.5 20.8 L 44.2 20.8 L 44.2 30.1 L 43.6 30.1 L 43.6 20.8 L 42.5 20.8 L 42.5 32.2 C 42.5 33.400000000000006 43.4 34.300000000000004 44.6 34.300000000000004 L 44.6 45.7 C 43.7 45.7 43 46.400000000000006 43 47.300000000000004 L 43 68.7 C 43 69.8 43.9 70.7 45 70.7 L 45.8 70.7 C 45.699999999999996 71.4 45.5 72.2 45.5 72.9 L 19.1 72.9 C 16.6 73 14.5 71.2 14.5 69 z M 67.5 93 C 57.6 93 49.5 84.9 49.5 75 C 49.5 65.1 57.6 57 67.5 57 C 77.4 57 85.5 65.1 85.5 75 C 85.5 84.9 77.4 93 67.5 93 z M 36.5 47.3 L 36.5 68.69999999999999 C 36.5 69.79999999999998 35.6 70.69999999999999 34.5 70.69999999999999 L 31 70.69999999999999 C 29.9 70.69999999999999 29 69.79999999999998 29 68.69999999999999 L 29 47.4 C 29 46.5 29.7 45.8 30.6 45.8 L 30.6 45.8 L 30.6 20.799999999999997 C 33.7 20.799999999999997 36.300000000000004 23.4 36.300000000000004 26.499999999999996 L 36.300000000000004 39.599999999999994 C 36.300000000000004 40.39999999999999 35.7 40.99999999999999 34.900000000000006 40.99999999999999 L 34.900000000000006 45.79999999999999 C 35.8 45.8 36.5 46.5 36.5 47.3 z" stroke-linecap="round" />
</g>
</svg>